# xmcd
#
# Track frame offsets: 
#        150
#        16525
#        28012
#        44450
#        58550
#        70500
#        83287
#        99962
#        117837
#        129887
#        145625
#        163137
#        178512
#        192937
#        207412
#        222775
#        240062
#        258912
#        276812
#        293262
#
# Disc length: 4114 seconds
#
# Revision: 0
# Processed by: cddbd v1.5.1PL0 Copyright (c) Steve Scherf et al.
# Submitted via: ExactAudioCopy v0.95b1
#
DISCID=f8101014
DTITLE=Exile - Kentucky Hearts_Shelter From The Night
DYEAR=1999
DGENRE=Country
TTITLE0=She's A Miracle
TTITLE1=I've Never Seen Anything
TTITLE2=You Make It Easy
TTITLE3=Comin' Apart At The Seams
TTITLE4=Just In Case
TTITLE5=Give Me One More Chance
TTITLE6=Somethin' You Got
TTITLE7=If I Didn't Love You
TTITLE8=Ain't That A Pity
TTITLE9=Crazy For Your Love
TTITLE10=Just One Kiss
TTITLE11=Shelter From The Night
TTITLE12=My Heart's In Good Hands
TTITLE13=Showdown
TTITLE14=Fly On The Wall
TTITLE15=Feel Like Foolin' Around
TTITLE16=I Can't Get Close Enough
TTITLE17=She's Already Gone
TTITLE18=It's You Again
TTITLE19=As Long As I Have Your Memory
EXTD=
EXTT0=
EXTT1=
EXTT2=
EXTT3=
EXTT4=
EXTT5=
EXTT6=
EXTT7=
EXTT8=
EXTT9=
EXTT10=
EXTT11=
EXTT12=
EXTT13=
EXTT14=
EXTT15=
EXTT16=
EXTT17=
EXTT18=
EXTT19=
PLAYORDER=
